<mxfile host="app.diagrams.net" modified="2024-04-10T23:20:59.082Z" agent="Mozilla/5.0 (Macintosh; Intel Mac OS X 10_15_7) AppleWebKit/537.36 (KHTML, like Gecko) Chrome/123.0.0.0 Safari/537.36" etag="fKpg9VeSZRH9pvfakOiO" version="24.2.2" type="github">
  <diagram name="第 1 页" id="c0B_H-Lklam57uJwgd3q">
    <mxGraphModel dx="398" dy="221" grid="1" gridSize="10" guides="1" tooltips="1" connect="1" arrows="1" fold="1" page="1" pageScale="1" pageWidth="400" pageHeight="100" math="0" shadow="0">
      <root>
        <mxCell id="0" />
        <mxCell id="1" parent="0" />
        <mxCell id="J1BsFF4OPjNaDUBZIlpE-1" value="" style="curved=1;endArrow=classic;html=1;rounded=0;" parent="1" edge="1">
          <mxGeometry width="50" height="50" relative="1" as="geometry">
            <mxPoint x="40" y="64" as="sourcePoint" />
            <mxPoint x="360" y="10" as="targetPoint" />
            <Array as="points">
              <mxPoint x="190" y="64" />
              <mxPoint x="220" y="10" />
            </Array>
          </mxGeometry>
        </mxCell>
        <mxCell id="J1BsFF4OPjNaDUBZIlpE-2" value="" style="whiteSpace=wrap;html=1;aspect=fixed;fillColor=#dae8fc;strokeColor=#6c8ebf;" parent="1" vertex="1">
          <mxGeometry x="70" y="46" width="30" height="30" as="geometry" />
        </mxCell>
        <mxCell id="J1BsFF4OPjNaDUBZIlpE-5" value="" style="ellipse;whiteSpace=wrap;html=1;aspect=fixed;fillColor=#f8cecc;strokeColor=#b85450;" parent="1" vertex="1">
          <mxGeometry x="199" y="33" width="10" height="10" as="geometry" />
        </mxCell>
        <mxCell id="J1BsFF4OPjNaDUBZIlpE-6" value="" style="ellipse;whiteSpace=wrap;html=1;aspect=fixed;fillColor=#f8cecc;strokeColor=#b85450;" parent="1" vertex="1">
          <mxGeometry x="260" y="9" width="10" height="10" as="geometry" />
        </mxCell>
        <mxCell id="J1BsFF4OPjNaDUBZIlpE-7" value="" style="ellipse;whiteSpace=wrap;html=1;aspect=fixed;fillColor=#f8cecc;strokeColor=#b85450;" parent="1" vertex="1">
          <mxGeometry x="140" y="54" width="10" height="10" as="geometry" />
        </mxCell>
      </root>
    </mxGraphModel>
  </diagram>
</mxfile>
